<svg id="noun-shield-8131211" xmlns="http://www.w3.org/2000/svg" width="16" height="18.663" viewBox="0 0 16 18.663">
  <path id="Path_16961" data-name="Path 16961" d="M17.052,3.338l-6.54,2.125a.873.873,0,0,0-.633.839v4.3c0,5.426,3.444,8.852,7.561,11.144a.881.881,0,0,0,.877,0c4.117-2.291,7.561-5.719,7.561-11.144V6.3a.875.875,0,0,0-.633-.839L18.7,3.338a2.566,2.566,0,0,0-1.653,0ZM10.844,10.6V6.719h0a.477.477,0,0,1,.33-.454L17.35,4.259a1.66,1.66,0,0,1,.528-.09v0a1.681,1.681,0,0,1,.528.091l6.146,2a.479.479,0,0,1,.36.463V10.6c0,4.809-2.9,7.869-6.79,10.142a.478.478,0,0,1-.482,0c-3.9-2.23-6.8-5.383-6.8-10.145ZM11.8,7.066c.673-.219,5.849-1.943,6.078-1.943v0c.24,0,5.4,1.721,6.078,1.942V10.6c0,4.295-2.584,7.117-6.078,9.178C14.384,17.721,11.8,14.9,11.8,10.6Z" transform="translate(-9.878 -3.201)" fill="#1a3b70" fill-rule="evenodd"/>
</svg>
