<svg xmlns="http://www.w3.org/2000/svg" version="1.1" viewBox="-5.0 -10.0 110.0 135.0">
 <path d="m45.855 3.8867-32.801 10.656c-1.8945 0.61328-3.1758 2.1992-3.1758 4.207v21.57c0 27.211 17.27 44.395 37.922 55.891 1.4062 0.78125 2.9922 0.78125 4.3984 0 20.648-11.492 37.922-28.68 37.922-55.891v-21.566c0-2.0039-1.2852-3.5938-3.1758-4.207l-32.801-10.66c-2.8203-0.91406-5.4688-0.91406-8.2891 0zm-31.133 36.438v-19.48h0.003906c0-1.0117 0.64453-1.9492 1.6562-2.2773l30.969-10.062c0.92188-0.30078 1.7617-0.44922 2.6484-0.44922v-0.011719c0.86328 0 1.707 0.15234 2.6484 0.45703l30.824 10.016c1.0391 0.26562 1.8047 1.207 1.8047 2.3242v19.48c0 24.117-14.535 39.465-34.051 50.863-0.71875 0.42578-1.6406 0.46484-2.418 0.019531-19.539-11.184-34.086-26.996-34.086-50.879zm4.7969-17.742c3.375-1.0977 29.336-9.7461 30.48-9.7461v0.011718c1.2031 0 27.059 8.6289 30.48 9.7383v17.742c0 21.539-12.957 35.691-30.48 46.031-17.523-10.34-30.48-24.488-30.48-46.031z" fill-rule="evenodd"/>
<text x="0.0" y="117.5" font-size="5.0" font-weight="bold" font-family="Arbeit Regular, Helvetica, Arial-Unicode, Arial, Sans-serif" fill="#000000">Created by Elin Erkani</text><text x="0.0" y="122.5" font-size="5.0" font-weight="bold" font-family="Arbeit Regular, Helvetica, Arial-Unicode, Arial, Sans-serif" fill="#000000">from Noun Project</text></svg>