<svg xmlns="http://www.w3.org/2000/svg" xmlns:xlink="http://www.w3.org/1999/xlink" width="221.272" height="228.404" viewBox="0 0 221.272 228.404">
  <defs>
    <clipPath id="clip-path">
      <rect id="Rectangle_4110" data-name="Rectangle 4110" width="146.916" height="175.958" fill="none"/>
    </clipPath>
    <clipPath id="clip-path-3">
      <rect id="Rectangle_4108" data-name="Rectangle 4108" width="137.767" height="172.559" fill="none"/>
    </clipPath>
  </defs>
  <g id="Group_12956" data-name="Group 12956" transform="matrix(0.819, -0.574, 0.574, 0.819, 0, 84.268)" opacity="0.102">
    <g id="Group_12955" data-name="Group 12955" clip-path="url(#clip-path)">
      <g id="Group_12954" data-name="Group 12954">
        <g id="Group_12953" data-name="Group 12953" clip-path="url(#clip-path)">
          <path id="Path_18054" data-name="Path 18054" d="M52.63,166.1c-20.15,6.691-36.187,2.407-46.7-11.776-22.189-29.951,25.595-37.839,17.495-87.637C10.9-10.308,55.861-4.869,69.725,6.774,80.8,16.072,82.99,32.28,90.637,44.025c8.687,13.347,22.213,20.041,34.2,29.767,16.265,13.194,29.984,46.081.94,48.891C72.22,127.865,84.89,155.386,52.63,166.1" transform="translate(0 0)" fill="#297ff3"/>
          <path id="Path_18055" data-name="Path 18055" d="M323.678,125.939c-4.627.23-3.167,5.686-.315,7.748,4.591,3.313,8.432,3.02,8.955-.044.606-3.524-3.389-7.961-8.64-7.7" transform="translate(-218.825 -85.926)" fill="#297ff3"/>
          <path id="Path_18056" data-name="Path 18056" d="M328,77.061c-2.947.147-2.017,3.625-.2,4.94,2.924,2.111,5.372,1.922,5.707-.028.388-2.247-2.16-5.073-5.507-4.912" transform="translate(-222.51 -52.577)" fill="#297ff3"/>
          <path id="Path_18057" data-name="Path 18057" d="M34.244,257.31c-2.258-1.9-3.946,1.28-3.509,3.481.7,3.537,2.62,5.064,4.2,3.868,1.814-1.382,1.874-5.187-.686-7.349" transform="translate(-20.924 -175.176)" fill="#297ff3"/>
          <g id="Group_12952" data-name="Group 12952" transform="translate(9.149 3.4)" style="mix-blend-mode: multiply;isolation: isolate">
            <g id="Group_12951" data-name="Group 12951">
              <g id="Group_12950" data-name="Group 12950" clip-path="url(#clip-path-3)">
                <path id="Path_18058" data-name="Path 18058" d="M63.181,183.262c-9.363,0-17.891-3.51-25.275-10.508-14.158-13.418-9.035-24.737-3.1-37.843,5.774-12.759,12.959-28.638,4.823-51.952-14.277-40.905-6.351-58.531,2.812-66.113,10.773-8.914,26.379-6.7,34.02-2.287,7.961,4.6,12.958,12.463,17.79,20.068,2.92,4.594,5.94,9.346,9.536,13.195,7.57,8.1,16.824,12.5,26.622,17.16,3.933,1.871,8,3.8,11.95,6,12.833,7.128,25.577,23.148,24.1,35.635-.576,4.856-3.633,11.3-14.929,14.441-30.136,8.373-36.571,20.367-42.794,31.967-4.382,8.17-8.914,16.617-21.468,23.4l-.54-1,.54,1c-8.456,4.567-16.538,6.844-24.079,6.844M60.681,12.95A26.033,26.033,0,0,0,43.888,18.6c-8.606,7.122-15.961,23.939-2.114,63.61,8.436,24.173,1.042,40.512-4.9,53.64-6.029,13.322-10.385,22.949,2.6,35.253,12.549,11.893,28.7,13.037,46.708,3.313,11.953-6.455,16.125-14.233,20.543-22.469,6.449-12.021,13.117-24.451,44.19-33.084,8.093-2.248,12.561-6.459,13.279-12.516,1.353-11.409-11.006-26.747-22.943-33.377-3.884-2.159-7.919-4.078-11.822-5.933-9.558-4.545-19.443-9.245-27.308-17.662-3.74-4-6.818-8.845-9.793-13.528-4.685-7.372-9.53-15-17.007-19.318A30.482,30.482,0,0,0,60.681,12.95" transform="translate(-28.802 -10.703)" fill="#297ff3"/>
              </g>
            </g>
          </g>
        </g>
      </g>
    </g>
  </g>
</svg>
