<?xml version="1.0" encoding="UTF-8"?>
<svg xmlns="http://www.w3.org/2000/svg" viewBox="0 0 79.28 34.17">
  <defs>
    <style>
      .cls-1 {
        fill: #545871;
      }

      .cls-2, .cls-3, .cls-4 {
        isolation: isolate;
      }

      .cls-5 {
        fill: #005495;
      }

      .cls-3, .cls-4 {
        fill-rule: evenodd;
        mix-blend-mode: multiply;
      }

      .cls-3, .cls-6 {
        fill: #00a2ff;
      }

      .cls-4 {
        fill: #f5a124;
      }
    </style>
  </defs>
  <g class="cls-2">
    <g id="Layer_1" data-name="Layer 1">
      <g>
        <path id="Path_1901" data-name="Path 1901" class="cls-5" d="M55.85.04c1.54-.03,3.03.58,4.09,1.7,1.11,1.07,1.73,2.55,1.71,4.09v7.39c.02.29-.11.56-.33.74-.19.18-.44.28-.7.28-.27,0-.52-.11-.71-.29-.21-.18-.32-.45-.31-.72v-7.39c0-2.08-1.68-3.76-3.76-3.77-1.01-.01-1.98.4-2.67,1.13-.72.69-1.13,1.65-1.11,2.65v7.39c0,.27-.1.53-.29.72-.38.37-.99.39-1.39.04-.22-.19-.35-.47-.33-.77v-7.39c.02-2.07-1.64-3.76-3.71-3.77-1.02,0-2,.4-2.71,1.13-.72.69-1.12,1.65-1.11,2.65v7.39c.01.27-.1.53-.29.71-.19.19-.44.3-.71.29-.28.02-.56-.1-.75-.31-.18-.19-.28-.45-.28-.71v-7.48c-.01-1.53.61-2.99,1.72-4.04,1.99-1.95,5.08-2.23,7.38-.65.29.21.57.44.84.68.25.24.47.5.67.78.2-.29.43-.57.68-.82.25-.24.52-.46.81-.65C53.55.37,54.69.01,55.86.01v.03Z"/>
        <path id="Path_1902" data-name="Path 1902" class="cls-6" d="M42.12,23.92c.02,1.32-.52,2.59-1.47,3.51-1.95,1.92-5.09,1.91-7.01-.04-1.92-1.95-1.91-5.09.04-7.01.92-.91,2.16-1.42,3.46-1.43.91,0,1.81.24,2.59.72.18.1.34.22.5.35.15.12.3.25.43.39v-4.64c0-.2.09-.38.22-.52.13-.13.31-.2.5-.2.19,0,.38.07.52.2.13.14.21.32.2.51v8.18ZM37.15,27.42c1.94,0,3.52-1.57,3.52-3.51h0c.01-.95-.36-1.85-1.03-2.51-.65-.68-1.55-1.05-2.49-1.03-1.95,0-3.53,1.58-3.53,3.53,0,1.95,1.58,3.53,3.53,3.53h0Z"/>
        <path id="Path_1903" data-name="Path 1903" class="cls-5" d="M15.37.04c1.54-.03,3.03.58,4.09,1.7,1.11,1.07,1.73,2.55,1.71,4.09v7.39c.02.29-.11.56-.33.74-.19.18-.44.28-.7.28-.27,0-.52-.11-.71-.29-.2-.18-.31-.45-.3-.72v-7.39c0-2.08-1.68-3.76-3.76-3.78-1.01-.01-1.98.4-2.67,1.13-.72.69-1.13,1.65-1.11,2.65v7.39c0,.27-.1.53-.29.72-.38.37-.99.39-1.39.04-.22-.19-.35-.47-.33-.77v-7.39c.02-2.07-1.64-3.76-3.71-3.77-1.02,0-2,.4-2.71,1.13-.72.69-1.12,1.65-1.12,2.64v7.39c.01.27-.1.53-.29.71-.19.19-.44.3-.71.29-.28.02-.56-.1-.75-.31C.1,13.72,0,13.47,0,13.2v-7.48c-.01-1.53.62-2.99,1.73-4.04C3.72-.26,6.81-.53,9.11,1.04c.29.21.57.44.84.68.25.24.47.5.67.78.2-.29.43-.57.68-.82.25-.24.52-.46.81-.65C13.07.36,14.22.01,15.39,0v.03Z"/>
        <path id="Path_1904" data-name="Path 1904" class="cls-6" d="M27.79,27.53c.13.15.19.34.19.53,0,.09-.03.18-.07.26-.08.17-.22.3-.39.36-.08.03-.16.04-.25.03-.1,0-.19-.01-.28-.05-.08-.04-.16-.1-.23-.17l-4.47-4.75-.27.2-.26.2-.37.27-.41.3v3.29c0,.19-.06.37-.19.51-.13.15-.33.23-.53.22-.2.01-.39-.06-.53-.2-.07-.06-.12-.14-.15-.23-.03-.09-.05-.19-.05-.29v-12.52c0-.2.09-.39.23-.53.07-.06.14-.11.23-.15.18-.08.39-.08.57,0,.08.04.15.09.23.14.14.14.22.33.21.53v7.39l1.42-1.04,1.41-1.03,1.48-1.09,1.49-1.1c.12-.09.27-.13.42-.13h.11c.09,0,.18.04.26.09.07.05.14.11.2.18.1.14.16.3.17.47v.11c-.02.09-.05.18-.09.26-.04.09-.11.16-.19.22l-1.09.79-1.02.75-.98.73-1.05.76,4.25,4.67Z"/>
        <path id="Path_1905" data-name="Path 1905" class="cls-1" d="M50.04,27.04h0c.04.06.07.12.08.17.02.07.02.14.02.21,0,.15-.08.29-.21.36h0c-.65.54-1.47.83-2.32.82-2.04,0-3.69-1.64-3.7-3.68,0-.98.39-1.93,1.08-2.62.69-.7,1.63-1.09,2.61-1.08.42,0,.83.07,1.22.21.39.14.75.34,1.07.59.06.05.11.1.15.17.08.13.1.29.04.44-.02.06-.05.12-.09.18-.04.05-.09.09-.15.12-.06.03-.13.05-.2.06h-.07c-.12,0-.23-.04-.33-.12-.24-.18-.5-.33-.78-.43-1.36-.48-2.86.24-3.34,1.6-.48,1.36.24,2.86,1.6,3.34.28.1.58.15.88.15.6,0,1.19-.2,1.66-.58.09-.08.2-.12.31-.12h.07c.15.02.28.1.37.22h0Z"/>
        <path id="Path_1906" data-name="Path 1906" class="cls-1" d="M58.59,28.1c0,.29-.23.54-.53.54h0c-.27.03-.52-.18-.54-.45,0-.03,0-.06,0-.09v-.56c-.1.09-.22.2-.35.3s-.25.18-.35.25c-.29.18-.59.32-.92.41-.33.09-.67.14-1.01.14-2.04,0-3.69-1.67-3.69-3.71,0-2.04,1.67-3.69,3.71-3.69,2.04,0,3.69,1.66,3.69,3.7v3.16ZM56.76,26.79c.5-.48.78-1.16.77-1.85,0-.7-.27-1.38-.77-1.87-.49-.5-1.17-.78-1.87-.76-.7-.02-1.37.26-1.86.76-.5.49-.78,1.17-.77,1.87,0,1.46,1.18,2.63,2.64,2.63.7,0,1.37-.28,1.86-.77h0Z"/>
        <path id="Path_1907" data-name="Path 1907" class="cls-1" d="M63.13,21.21c1.69.02,3.05,1.38,3.06,3.07-.02.29-.25.52-.55.53-.13,0-.27-.05-.37-.13-.1-.11-.15-.25-.16-.4,0-1.1-.88-1.99-1.98-1.99h-.01c-.53-.01-1.03.2-1.4.58-.38.37-.6.88-.59,1.42v3.89c0,.14-.05.28-.15.39-.1.09-.24.15-.38.15-.15,0-.29-.05-.39-.16-.04-.05-.08-.11-.11-.17-.03-.07-.04-.14-.04-.21v-3.94c0-.81.33-1.58.92-2.14.57-.57,1.34-.89,2.15-.89h0Z"/>
        <path id="Path_1908" data-name="Path 1908" class="cls-1" d="M74.23,24.84v.07s0,.06-.02.09h0c-.05.24-.27.4-.52.39h-5.76c.04.27.13.53.25.77.14.25.31.47.52.66.64.64,1.57.89,2.45.66.2-.05.4-.13.59-.22h0c.18-.1.36-.21.52-.35.16-.14.31-.3.43-.48.09-.12.22-.19.37-.22h.08c.11,0,.21.03.3.09.13.08.22.2.24.35,0,.02.01.03.01.05v.06c0,.11-.04.22-.1.31-.17.24-.37.46-.59.65-.22.19-.47.36-.73.5-.53.28-1.12.43-1.72.43-2.05,0-3.71-1.66-3.71-3.7h0v-.12c0-.97.41-1.9,1.13-2.56,1.44-1.39,3.73-1.39,5.18,0,.34.34.62.74.81,1.18.2.45.3.93.3,1.42h0s-.02,0-.02,0ZM73.09,24.32c-.06-.25-.16-.5-.3-.72-.13-.22-.29-.43-.48-.61-.24-.22-.52-.39-.83-.5-.31-.12-.63-.18-.96-.17-.66,0-1.29.25-1.77.7h0c-.39.35-.66.81-.78,1.32h5.12v-.02Z"/>
        <path id="Path_1909" data-name="Path 1909" class="cls-1" d="M45.53,33c.01.18-.31.18-.29,0v-.1c-.13.15-.32.24-.52.24-.22.01-.43-.07-.57-.23-.15-.17-.22-.39-.21-.61,0-.24.08-.46.26-.63.17-.16.41-.25.64-.24.15,0,.29.04.42.12v-.85c-.01-.18.31-.18.29,0v2.31ZM45.24,31.84c-.12-.08-.26-.12-.41-.13-.16,0-.31.05-.42.16-.12.11-.18.27-.18.43-.03.29.18.54.47.57.02,0,.05,0,.07,0,.18,0,.35-.08.47-.22v-.82Z"/>
        <path id="Path_1910" data-name="Path 1910" class="cls-1" d="M47.86,32.27c0,.06-.06.11-.12.12h-1.15c.02.29.26.51.55.49,0,0,.01,0,.02,0,.14,0,.28-.03.4-.1.03-.01.05-.02.08-.02.04,0,.08.02.1.05.02.02.02.04.02.07,0,.04-.01.08-.04.1-.17.12-.37.18-.58.18-.24.01-.47-.07-.64-.23-.16-.17-.25-.39-.24-.62,0-.23.07-.45.23-.62.16-.17.39-.25.62-.24.2,0,.4.07.54.21.15.14.23.34.22.54,0,.03,0,.05,0,.08ZM47.56,32.15c0-.24-.19-.44-.43-.44-.01,0-.03,0-.04,0-.26-.02-.49.18-.52.44h1Z"/>
        <path id="Path_1911" data-name="Path 1911" class="cls-1" d="M50.09,33c.02.18-.31.18-.29,0v-.09c-.13.15-.32.24-.52.24-.22.01-.43-.07-.57-.23-.15-.17-.22-.39-.22-.61,0-.24.08-.46.26-.63.17-.16.4-.25.64-.24.15,0,.29.04.42.12v-.85c-.02-.18.31-.18.29,0v2.3ZM49.8,31.84c-.12-.08-.26-.12-.41-.13-.16,0-.31.05-.42.16-.12.11-.18.27-.18.43-.03.29.18.54.47.57.02,0,.04,0,.07,0,.18,0,.35-.08.47-.22v-.82Z"/>
        <path id="Path_1912" data-name="Path 1912" class="cls-1" d="M51.16,30.68c.1,0,.18.07.18.17,0,0,0,0,0,0,0,.1-.07.18-.16.19,0,0-.01,0-.02,0-.1,0-.19-.07-.19-.17,0,0,0-.01,0-.02,0-.1.08-.18.18-.18,0,0,0,0,0,0ZM51.3,33c.02.18-.31.18-.29,0v-1.41c-.02-.18.31-.18.29,0v1.41Z"/>
        <path id="Path_1913" data-name="Path 1913" class="cls-1" d="M52.98,31.71c-.15,0-.29.06-.4.16-.11.11-.17.26-.17.42,0,.16.06.31.17.42.11.11.26.16.42.16.13,0,.25-.04.35-.11.03-.03.07-.04.11-.05.03,0,.06.01.08.04.03.02.04.06.04.09,0,.04-.01.07-.04.09-.16.14-.36.22-.57.21-.23,0-.46-.08-.64-.24-.17-.16-.26-.39-.25-.62,0-.23.08-.45.24-.61.16-.16.37-.25.6-.25.19,0,.37.04.53.13.05.02.08.07.08.12,0,.02,0,.05-.02.07-.02.04-.07.07-.12.07-.02,0-.05,0-.07-.02-.11-.06-.24-.1-.36-.1Z"/>
        <path id="Path_1914" data-name="Path 1914" class="cls-1" d="M54.77,32.11c.14,0,.29.03.41.11,0-.35-.07-.52-.37-.52-.11,0-.22.02-.33.07-.02,0-.04.01-.05.01-.05,0-.09-.03-.11-.07,0-.02-.01-.03-.01-.05,0-.05.03-.1.07-.12.14-.06.3-.1.45-.1.45,0,.63.22.63.67v.9c0,.08-.07.13-.15.13-.07,0-.12-.06-.13-.13v-.11c-.13.16-.32.25-.53.24-.26.02-.49-.18-.5-.45,0-.02,0-.04,0-.06,0-.32.25-.52.62-.52ZM55.18,32.46c-.11-.07-.24-.11-.37-.11-.19,0-.35.09-.35.27s.11.26.3.26c.17,0,.32-.08.42-.21v-.21Z"/>
        <path id="Path_1915" data-name="Path 1915" class="cls-1" d="M57.03,32.83c.06,0,.12.05.12.11,0,0,0,0,0,0,0,.05-.03.1-.08.12-.11.06-.23.09-.35.08-.36,0-.52-.22-.52-.65v-1.34c-.02-.18.31-.18.29,0v.32h.46c.08,0,.14.06.14.14,0,.08-.06.14-.14.14h-.47v.72c0,.27.1.41.29.41.07,0,.21-.04.23-.04Z"/>
        <path id="Path_1916" data-name="Path 1916" class="cls-1" d="M59.25,32.27c0,.06-.06.11-.12.12h-1.15c.02.29.26.51.55.49,0,0,.02,0,.02,0,.14,0,.28-.03.4-.1.03-.01.05-.02.08-.02.04,0,.08.02.1.05.02.02.02.04.02.07,0,.04-.01.08-.04.1-.17.12-.37.18-.58.18-.24.01-.47-.07-.64-.23-.16-.17-.25-.39-.24-.62,0-.23.07-.45.23-.62.16-.17.39-.25.62-.24.2,0,.4.07.54.21.15.14.23.34.22.54,0,.03,0,.05,0,.08ZM58.95,32.15c0-.24-.19-.44-.43-.44-.01,0-.03,0-.04,0-.26-.02-.49.18-.52.44h1Z"/>
        <path id="Path_1917" data-name="Path 1917" class="cls-1" d="M61.48,33c.01.18-.31.18-.29,0v-.09c-.13.15-.32.24-.52.24-.22.01-.43-.07-.57-.23-.15-.17-.22-.39-.22-.61,0-.24.08-.46.26-.63.17-.16.41-.25.64-.24.15,0,.29.04.42.12v-.85c-.02-.18.31-.18.29,0v2.3ZM61.19,31.84c-.12-.08-.26-.12-.41-.13-.16,0-.31.05-.42.16-.12.11-.18.27-.18.43-.03.29.18.54.47.57.02,0,.05,0,.07,0,.18,0,.35-.08.47-.22v-.82Z"/>
        <path id="Path_1918" data-name="Path 1918" class="cls-1" d="M64.22,32.83c.07,0,.12.05.12.11,0,0,0,0,0,0,0,.05-.03.1-.08.12-.11.06-.23.09-.35.08-.36,0-.52-.22-.52-.65v-1.34c-.02-.18.31-.18.29,0v.32h.46c.08,0,.14.06.14.14,0,.08-.06.14-.14.14h-.47v.72c0,.27.1.41.29.41.07,0,.21-.05.24-.05Z"/>
        <path id="Path_1919" data-name="Path 1919" class="cls-1" d="M64.83,32.29c0-.23.08-.45.25-.62.17-.16.4-.25.63-.24.24,0,.46.08.64.24.16.16.25.39.24.62,0,.23-.08.45-.24.61-.17.17-.4.25-.64.25-.24,0-.46-.08-.63-.25-.16-.16-.25-.38-.25-.61ZM65.71,32.88c.32,0,.59-.24.6-.57,0-.32-.24-.59-.57-.6-.32,0-.59.24-.6.57,0,0,0,.01,0,.02-.02.3.21.56.51.58.02,0,.04,0,.05,0h0Z"/>
        <path id="Path_1920" data-name="Path 1920" class="cls-1" d="M68.74,33c.02.18-.31.18-.29,0v-2.3c-.02-.18.31-.18.29,0v.96c.14-.14.33-.21.53-.22.46,0,.68.25.68.73v.83c.02.18-.31.18-.29,0v-.79c0-.33-.15-.5-.46-.5-.18,0-.35.08-.47.21v1.08Z"/>
        <path id="Path_1921" data-name="Path 1921" class="cls-1" d="M72.29,32.27c0,.06-.06.11-.12.12h-1.15c.02.29.27.51.56.49,0,0,.01,0,.02,0,.14,0,.28-.03.4-.1.03-.01.05-.02.08-.02.04,0,.08.02.1.05.02.02.02.04.02.07,0,.04-.01.08-.04.1-.17.12-.37.18-.58.18-.24.01-.47-.07-.64-.23-.16-.17-.25-.39-.24-.62,0-.23.07-.45.23-.62.16-.17.39-.25.62-.24.2,0,.4.07.54.21.15.14.23.34.22.54,0,.03,0,.05,0,.08ZM71.99,32.15c0-.24-.19-.44-.43-.44-.01,0-.03,0-.04,0-.26-.02-.49.18-.52.44h1Z"/>
        <path id="Path_1922" data-name="Path 1922" class="cls-1" d="M73.31,32.99c0,.08-.07.15-.15.14-.08,0-.14-.07-.14-.14v-1.4c0-.08.07-.15.15-.14.08,0,.14.07.14.14v.07c.09-.14.24-.23.41-.22.05,0,.1,0,.15.02.07.02.11.06.11.12,0,0,0,.02,0,.05-.02.07-.08.11-.15.1-.02,0-.04,0-.07,0-.03,0-.07,0-.1,0-.15,0-.29.09-.34.23v1.05Z"/>
        <path id="Rectangle_943" data-name="Rectangle 943" class="cls-6" d="M30.08,18.54h0c.4,0,.73.33.73.73v8.87c0,.4-.33.73-.73.73h0c-.4,0-.73-.33-.73-.73v-8.87c0-.4.33-.73.73-.73Z"/>
        <path id="Path_1923" data-name="Path 1923" class="cls-4" d="M34.28,30.28c-.76.52-1.05,1.5-.7,2.35.15.74.88,1.21,1.61,1.05.09-.02.18-.05.26-.08.76-.52,1.05-1.5.7-2.35-.15-.74-.88-1.21-1.61-1.05-.09.02-.18.05-.26.08"/>
        <path id="Path_1924" data-name="Path 1924" class="cls-4" d="M39.26,29.84c-1.11.6-1.68,1.87-1.39,3.1.26.91,1.21,1.43,2.11,1.17.17-.05.34-.13.49-.23,1.11-.6,1.68-1.87,1.39-3.1-.26-.91-1.21-1.43-2.11-1.17-.17.05-.34.13-.49.23"/>
        <path id="Path_1925" data-name="Path 1925" class="cls-4" d="M30.39,30.7c-.64.35-.96,1.08-.8,1.78.15.52.7.82,1.22.67.1-.03.19-.07.28-.13.64-.35.96-1.08.8-1.78-.15-.52-.7-.82-1.22-.67-.1.03-.19.07-.28.13"/>
        <path id="Path_1926" data-name="Path 1926" class="cls-4" d="M20.06,31.3c.32.06.56.32.59.64.03.24-.14.45-.38.48-.05,0-.09,0-.14,0-.32-.06-.56-.31-.59-.63-.03-.24.14-.45.38-.48.05,0,.09,0,.14,0"/>
        <path id="Path_1927" data-name="Path 1927" class="cls-4" d="M23.12,31.16c.42.06.74.38.8.8.03.31-.2.59-.51.61-.06,0-.12,0-.18-.01-.42-.06-.74-.38-.8-.8-.03-.31.2-.59.51-.61.06,0,.12,0,.18.01"/>
        <path id="Path_1928" data-name="Path 1928" class="cls-4" d="M26.54,31.02c-.47.25-.7.78-.58,1.3.11.38.51.6.89.49.07-.02.14-.05.2-.09.47-.25.7-.78.58-1.3-.11-.38-.51-.6-.89-.49-.07.02-.14.05-.2.09"/>
        <path id="Path_1929" data-name="Path 1929" class="cls-5" d="M33.92,4.13c-.42-1.36-1.67-2.3-3.1-2.32-1.17-.15-1.34,1.09-2.09,1.73-1.09.92-3.26,1.55-3.5,4.07-.03.32-.02.92-.01,1.29,0,3.7,4.96,4.15,7.29,1.71.56-.58,2.32-4.15,1.41-6.48M30.88,14.2c-3.95.14-7.26-2.95-7.4-6.9,0-.07,0-.13,0-.2v-.05C23.67,2.98,27.12-.18,31.19,0c3.83.17,6.89,3.26,7.04,7.09v.05c-.02,3.91-3.2,7.07-7.11,7.05-.08,0-.16,0-.23,0Z"/>
        <path id="Path_1930" data-name="Path 1930" class="cls-3" d="M30.88,2.74c-1.28.14-2.2,1.29-2.06,2.57.14,1.28,1.29,2.2,2.57,2.06s2.2-1.29,2.06-2.57c0-.04,0-.08-.02-.11-.17-1.24-1.31-2.11-2.55-1.95"/>
        <path id="Path_1931" data-name="Path 1931" class="cls-3" d="M29.96,6.42c-1.45.36-2.48,1.65-2.52,3.14.03,1.12.96,2,2.08,1.97.21,0,.42-.05.62-.12,1.45-.36,2.48-1.65,2.52-3.14-.03-1.12-.96-2-2.08-1.97-.21,0-.42.05-.62.12"/>
        <path id="Path_1932" data-name="Path 1932" class="cls-3" d="M27.82,7.01c-.83.21-1.43.95-1.45,1.81.02.64.55,1.15,1.2,1.13.12,0,.24-.03.36-.07.83-.21,1.43-.95,1.45-1.81-.02-.64-.55-1.15-1.2-1.13-.12,0-.24.03-.36.07"/>
        <path id="Path_1933" data-name="Path 1933" class="cls-3" d="M26.52,7.85c.46.19.73.66.67,1.15-.06.36-.41.61-.78.54-.07-.01-.14-.03-.2-.07-.46-.19-.73-.66-.67-1.15.06-.36.41-.61.78-.54.07.01.14.03.2.07"/>
        <path id="Path_1934" data-name="Path 1934" class="cls-3" d="M29.41,6.2c.46.19.73.66.68,1.15-.06.36-.41.61-.78.54-.07-.01-.13-.03-.2-.07-.46-.19-.73-.66-.67-1.15.06-.36.41-.61.78-.54.07.01.13.03.2.07"/>
        <path id="Path_1935" data-name="Path 1935" class="cls-1" d="M78.14,22.31c0,.18-.05.36-.16.5-.13.15-.31.26-.51.3h0s.84,1.17.84,1.17h-.62l-.77-1.09h-.35v1.09h-.52v-2.82h.86c.13,0,.27,0,.4.02.11.01.21.04.31.07.15.05.29.15.39.28.09.14.14.3.13.47ZM76.82,22.77c.1,0,.2,0,.3-.02.07,0,.14-.02.21-.05.09-.03.17-.08.22-.16.04-.07.06-.15.06-.24,0-.07-.02-.14-.05-.2-.04-.06-.09-.11-.16-.14-.06-.03-.12-.04-.19-.05-.09-.01-.18-.02-.28-.02h-.37v.87h.26Z"/>
        <path id="Path_1936" data-name="Path 1936" class="cls-1" d="M77,25.25c-1.26,0-2.28-1.02-2.28-2.28s1.02-2.28,2.28-2.28c1.26,0,2.28,1.02,2.28,2.28s-1.02,2.28-2.28,2.28h0ZM77,20.9c-1.14,0-2.07.93-2.07,2.07s.93,2.07,2.07,2.07c1.14,0,2.07-.93,2.07-2.07,0-1.14-.93-2.07-2.07-2.07h0Z"/>
        <path id="Path_1968" data-name="Path 1968" class="cls-5" d="M33.92,4.13c-.42-1.36-1.67-2.3-3.1-2.32-1.17-.15-1.34,1.09-2.09,1.73-1.09.92-3.26,1.55-3.5,4.07-.03.32-.02.92-.01,1.29,0,3.7,4.96,4.15,7.29,1.71.56-.58,2.32-4.15,1.41-6.48M30.88,14.2c-3.95.14-7.26-2.95-7.4-6.9,0-.07,0-.13,0-.2v-.05C23.67,2.98,27.12-.18,31.19,0c3.83.17,6.89,3.26,7.04,7.09v.05c-.02,3.91-3.2,7.07-7.11,7.05-.08,0-.16,0-.23,0Z"/>
      </g>
    </g>
  </g>
</svg>