<svg id="noun-purse-3362984" xmlns="http://www.w3.org/2000/svg" width="16.273" height="12.885" viewBox="0 0 16.273 12.885">
  <g id="Group_13265" data-name="Group 13265">
    <path id="Path_18162" data-name="Path 18162" d="M11.835,4.2h1.623a.523.523,0,0,0,.477-.525V2.338H2a.39.39,0,0,1-.43-.382A.428.428,0,0,1,2,1.527H13.935V1.336A.53.53,0,0,0,13.41.811H1.336a.53.53,0,0,0-.525.525V11.549a.53.53,0,0,0,.525.525H13.41a.53.53,0,0,0,.525-.525V9.163a.523.523,0,0,0-.477-.525H11.835A1.3,1.3,0,0,1,10.5,7.3V5.536A1.334,1.334,0,0,1,11.835,4.2Zm2.816,0h.286a1.366,1.366,0,0,1,1.336,1.336V7.3a1.334,1.334,0,0,1-1.336,1.336h-.286a2.03,2.03,0,0,1,.1.525v2.386a1.334,1.334,0,0,1-1.336,1.336H1.336A1.366,1.366,0,0,1,0,11.549V1.336A1.366,1.366,0,0,1,1.336,0H13.41a1.334,1.334,0,0,1,1.336,1.336V3.675A1.716,1.716,0,0,1,14.651,4.2Zm.286.811h-3.1a.53.53,0,0,0-.525.525V7.3a.53.53,0,0,0,.525.525h3.1a.53.53,0,0,0,.525-.525V5.536A.53.53,0,0,0,14.937,5.011Z" fill="#f43f5e"/>
    <path id="Path_18163" data-name="Path 18163" d="M247,113a1.059,1.059,0,0,1,1.05,1.05,1.019,1.019,0,0,1-1.05,1,.979.979,0,0,1-1-1A1.019,1.019,0,0,1,247,113Zm0,.811a.218.218,0,0,0-.191.239c0,.1.1.239.191.239a.256.256,0,0,0,.239-.239A.225.225,0,0,0,247,113.811Z" transform="translate(-234.26 -107.607)" fill="#f43f5e"/>
  </g>
</svg>
