<svg xmlns="http://www.w3.org/2000/svg" width="14.923" height="15.365" viewBox="0 0 14.923 15.365">
  <g id="Group_3274" data-name="Group 3274" transform="translate(-556.745 -564.583)">
    <path id="Path_8343" data-name="Path 8343" d="M1030.75,724.078V722.7c0-1.043.852-1.6,1.9-1.6s1.9.562,1.9,1.6v1.38h1.192V722.7a3.106,3.106,0,0,0-6.182,0v1.38Z" transform="translate(-468.442 -155.315)" fill="#fff"/>
    <path id="Path_8344" data-name="Path 8344" d="M950.871,1003.486h-8.63V1000.8a1.494,1.494,0,0,1,1.494-1.494h5.642a1.494,1.494,0,0,1,1.494,1.494v2.683Z" transform="translate(-382.35 -430.809)" fill="#fff"/>
    <g id="Group_3270" data-name="Group 3270" transform="translate(563.542 570.63)">
      <circle id="Ellipse_176" data-name="Ellipse 176" cx="0.665" cy="0.665" r="0.665" fill="#1b7ff6"/>
      <path id="Path_8345" data-name="Path 8345" d="M1215.262,1218.28h-.726l-.136.832h1Z" transform="translate(-1214.234 -1217.34)" fill="#1b7ff6"/>
    </g>
    <path id="Path_8346" data-name="Path 8346" d="M720.594,1280.141h1.754v2.066l2.723-2.066h4.979a2.733,2.733,0,0,0,2.727-2.734l-.01-.06a2.73,2.73,0,0,0-2.728-2.727l-9.458.01a2.73,2.73,0,0,0-2.727,2.727l.01.067A2.722,2.722,0,0,0,720.594,1280.141Zm7.911-3.084.292-.505.561.324v-.647h.584v.647l.56-.324.292.505-.56.324.56.323-.292.505-.56-.324v.647h-.584v-.647l-.561.324-.292-.505.56-.323Zm-2.89,0,.292-.505.561.324v-.647h.583v.647l.561-.324.292.505-.56.324.56.323-.292.505-.561-.324v.647h-.583v-.647l-.561.324-.292-.505.561-.323Zm-2.89,0,.292-.505.561.324v-.647h.584v.647l.56-.324.292.505-.56.324.56.323-.292.505-.56-.324v.647h-.584v-.647l-.561.324-.292-.505.56-.323Zm-2.889,0,.292-.505.56.324v-.647h.584v.647l.561-.324.292.505-.56.324.56.323-.292.505-.561-.324v.647h-.584v-.647l-.56.324-.292-.505.56-.323Z" transform="translate(-161.108 -702.26)" fill="#fff"/>
  </g>
</svg>
